<svg width="14" height="14" viewBox="0 0 48 48" fill="none" xmlns="http://www.w3.org/2000/svg">
  <path d="M16.8312 19.6011C16.8312 17.7406 18.2816 16.2272 20.0646 16.2272C21.8475 16.2272 23.2979 17.7406 23.2979 19.6011C23.2979 21.4615 21.8475 22.9749 20.0646 22.9749C18.2816 22.9749 16.8312 21.4615 16.8312 19.6011ZM47.7847 36.5195L29.1004 31.8986C26.0561 31.1454 23.6244 28.8287 22.5968 25.817C24.5292 24.9572 25.9813 23.1434 26.4084 20.9468H43.7144L47.7847 36.5204V36.5195ZM45.6288 47.9671L1.89584 40.5793L0.155871 25.3374C-0.360535 20.815 0.411926 16.2864 2.38819 12.2419C4.37133 8.18309 7.43196 4.89712 11.2384 2.73995C14.4013 0.947686 17.9886 0 21.6129 0C26.429 0 30.9985 1.61205 34.8255 4.66312C38.6526 7.71329 41.3464 11.8887 42.6137 16.7374L42.8303 17.5658H26.2365C25.4074 14.833 22.9542 12.8471 20.0646 12.8471C16.4953 12.8471 13.5919 15.8767 13.5919 19.6011C13.5919 23.0708 16.1129 25.9372 19.3445 26.312C20.599 30.7007 24.018 34.1158 28.3537 35.1872L48.0012 40.0467L45.6297 47.9662L45.6288 47.9671Z" fill="#000000"/>
</svg>
